HIERARCHY
ROOT root
{
	OFFSET	0	13.1	24.9
	CHANNELS 6  Xposition Yposition Zposition Xrotation Yrotation Zrotation
	JOINT spine_1
	{
		OFFSET	0	9.99999	0
		CHANNELS 3  Xrotation Yrotation Zrotation
		JOINT spine_2
		{
			OFFSET	0	112	-10
			CHANNELS 3  Xrotation Yrotation Zrotation
			JOINT spine_3
			{
				OFFSET	0	206.5	19.3
				CHANNELS 3  Xrotation Yrotation Zrotation
				JOINT spine_4
				{
					OFFSET	0	110.4	14.6
					CHANNELS 3  Xrotation Yrotation Zrotation
					JOINT neck_1
					{
						OFFSET	0	71.8	-50.3
						CHANNELS 3  Xrotation Yrotation Zrotation
						JOINT neck_2
						{
							OFFSET	0	86.2	-25.8
							CHANNELS 3  Xrotation Yrotation Zrotation
							JOINT head_ee
							{
								OFFSET	0	179.8	-8.7
								CHANNELS 3  Xrotation Yrotation Zrotation
								End Site
								{
									OFFSET	1	0	0
								}
							}
						}
					}
					JOINT left_clavicle
					{
						OFFSET	-43.2	22.4	-70.8
						CHANNELS 3  Xrotation Yrotation Zrotation
						JOINT left_shoulder
						{
							OFFSET	-93.9	-5.79999	48.7
							CHANNELS 3  Xrotation Yrotation Zrotation
							JOINT left_elbow
							{
								OFFSET	-291.4	-30.8	15.2
								CHANNELS 3  Xrotation Yrotation Zrotation
								JOINT left_lowarm_twist
								{
									OFFSET	-110.7	-3.89999	13.6
									CHANNELS 3  Xrotation Yrotation Zrotation
									JOINT left_hand
									{
										OFFSET	-110.7	-3.89999	13.6
										CHANNELS 3  Xrotation Yrotation Zrotation
										JOINT left_ee
										{
											OFFSET	-80.8	-5.10001	12.1
											CHANNELS 3  Xrotation Yrotation Zrotation
											End Site
											{
												OFFSET	1	0	0
											}
										}
									}
								}
							}
						}
					}
					JOINT right_clavicle
					{
						OFFSET	43.2	22.4	-70.8
						CHANNELS 3  Xrotation Yrotation Zrotation
						JOINT right_shoulder
						{
							OFFSET	93.9	-5.79999	48.7
							CHANNELS 3  Xrotation Yrotation Zrotation
							JOINT right_elbow
							{
								OFFSET	291.4	-30.8	15.2
								CHANNELS 3  Xrotation Yrotation Zrotation
								JOINT right_lowarm_twist
								{
									OFFSET	110.7	-3.89999	13.6
									CHANNELS 3  Xrotation Yrotation Zrotation
									JOINT right_hand
									{
										OFFSET	110.7	-3.89999	13.6
										CHANNELS 3  Xrotation Yrotation Zrotation
										JOINT right_ee
										{
											OFFSET	80.8	-5.10001	12.1
											CHANNELS 3  Xrotation Yrotation Zrotation
											End Site
											{
												OFFSET	1	0	0
											}
										}
									}
								}
							}
						}
					}
				}
			}
		}
	}
	JOINT left_hip
	{
		OFFSET	-82.8	-127.5	0.300001
		CHANNELS 3  Xrotation Yrotation Zrotation
		JOINT left_knee
		{
			OFFSET	-28.2	-396.7	2.2
			CHANNELS 3  Xrotation Yrotation Zrotation
			JOINT left_ankle
			{
				OFFSET	-11.7	-411.3	35.4
				CHANNELS 3  Xrotation Yrotation Zrotation
				JOINT left_toes
				{
					OFFSET	0	-60	-88.6
					CHANNELS 3  Xrotation Yrotation Zrotation
					JOINT left_foot_ee
					{
						OFFSET	-22.5	-16.5	-42.2
						CHANNELS 3  Xrotation Yrotation Zrotation
						End Site
						{
							OFFSET	1	0	0
						}
					}
				}
			}
		}
	}
	JOINT right_hip
	{
		OFFSET	82.8	-127.5	0.300001
		CHANNELS 3  Xrotation Yrotation Zrotation
		JOINT right_knee
		{
			OFFSET	28.2	-396.7	2.2
			CHANNELS 3  Xrotation Yrotation Zrotation
			JOINT right_ankle
			{
				OFFSET	11.7	-411.3	35.4
				CHANNELS 3  Xrotation Yrotation Zrotation
				JOINT right_toes
				{
					OFFSET	0	-60	-88.6
					CHANNELS 3  Xrotation Yrotation Zrotation
					JOINT right_foot_ee
					{
						OFFSET	22.5	-16.5	-42.2
						CHANNELS 3  Xrotation Yrotation Zrotation
						End Site
						{
							OFFSET	1	0	0
						}
					}
				}
			}
		}
	}
}
MOTION
Frames: 8
Frame Time: 0.02
3338.07 664.005 -515.292 6.50412 53.7708 -5.48573 -1.99009 0.55623 0.0587976 -1.99026 0.551362 0.0940739 -1.98947 0.511749 0.225752 -1.98913 0.540979 0.142095 -6.33313 5.8863 0.135078 -6.32432 10.8007 1.27002 -0.0 0.0 -0.0 8.91662 -3.74783 17.5166 -12.4605 13.7154 63.3153 0.518473 -14.4045 0.0655194 17.0573 0.28245 -2.15258 1.54678 -2.39277 9.41714 -0.0 0.0 -0.0 13.2339 27.4662 -26.0359 2.27865 -3.07243 -52.4245 0.979035 25.8722 -0.224883 11.5076 -0.261174 1.44433 -0.88187 -11.8152 0.715422 0.0 0.0 0.0 13.7706 3.65731 3.45796 -53.2618 -1.51795 7.74258 39.3682 26.0897 -5.14292 6.41529 -0.0 -0.0 -0.0 0.0 -0.0 9.66868 2.77682 -4.29448 -19.8079 -0.297875 -3.00997 9.74302 16.8575 1.52623 -5.10618 0.0 0.0 0.0 0.0 0.0 
3320.56 662.528 -529.366 4.80161 53.5149 -3.25182 -1.71235 0.600837 0.0286392 -1.71255 0.597797 0.0668154 -1.71199 0.564445 0.207916 -1.71157 0.590197 0.11616 -4.83225 5.41219 -0.793958 -4.80139 10.5393 0.112152 -0.0 0.0 -0.0 8.51897 -1.93704 16.6703 -13.9863 13.8817 64.0028 0.500047 -13.9128 0.0610122 17.9869 0.279303 -2.27127 1.53875 -2.31976 9.39246 -0.0 0.0 -0.0 13.1708 27.4927 -25.8869 2.08849 -1.82995 -52.1192 1.17431 30.1863 -0.316714 12.6948 -0.271492 1.59561 -0.481525 -11.0442 -1.49555 0.0 0.0 0.0 17.2699 3.01615 2.57847 -54.9467 -1.67973 7.94568 40.7167 25.8346 -5.26462 7.11465 -0.0 -0.0 -0.0 0.0 -0.0 8.85938 0.287026 -4.73035 -19.2996 -0.303314 -2.93217 8.26812 19.1001 1.32765 -5.07621 0.0 0.0 0.0 0.0 0.0 
3304.23 665.444 -538.793 4.08852 52.91 -2.5422 -1.79379 0.470462 0.029062 -1.79392 0.467659 0.0589405 -1.79352 0.439729 0.169758 -1.79326 0.461021 0.0981787 -4.22178 5.23644 -1.59362 -4.17308 10.7988 -0.79134 -0.0 0.0 -0.0 8.15329 1.62218 15.8572 -15.8078 13.2813 64.9878 0.517557 -14.3801 0.0652917 18.7726 0.275141 -2.37154 1.57019 -2.37126 9.5854 -0.0 0.0 -0.0 13.017 26.786 -25.6215 0.89511 1.53251 -52.5388 1.4393 35.4862 -0.460554 13.9053 -0.278784 1.75006 0.116169 -8.93488 -4.46013 0.0 0.0 0.0 21.3889 1.33685 1.57367 -55.5388 -1.738 8.01592 39.0571 25.7612 -5.10119 6.8245 -0.0 -0.0 -0.0 0.0 -0.0 7.4976 -0.225764 -4.68946 -19.6225 -0.299939 -2.98159 8.43787 19.9449 1.36444 -5.00492 0.0 0.0 0.0 0.0 0.0 
3295.25 666.88 -544.123 3.69028 53.0167 -1.91551 -1.64199 0.481302 0.00113287 -1.64212 0.480254 0.0317578 -1.64195 0.458882 0.145192 -1.64167 0.476053 0.0708969 -3.81251 5.26824 -1.67446 -3.75653 10.9053 -0.907374 -0.0 0.0 -0.0 7.42067 5.36337 14.3261 -17.617 11.588 65.6446 0.515262 -14.3189 0.0647228 19.3137 0.271476 -2.44055 1.60193 -2.127 9.90178 -0.0 0.0 -0.0 12.9621 26.6975 -25.5058 1.13053 4.44578 -51.9393 1.65962 39.4213 -0.594613 15.8701 -0.283669 2.00095 0.612758 -6.79316 -6.84011 0.0 0.0 0.0 24.5452 -2.94355 2.9615 -49.1522 -1.14914 7.22829 33.8339 26.4199 -4.57759 5.58677 -0.0 -0.0 -0.0 0.0 -0.0 6.57744 -1.13402 -5.21995 -18.924 -0.30689 -2.87465 8.54872 20.2443 1.38562 -5.02219 0.0 0.0 0.0 0.0 0.0 
3283.47 667.351 -544.727 2.13375 53.3262 -0.90102 -1.53909 0.499719 0.0954408 -1.53922 0.492633 0.127047 -1.53819 0.448653 0.239873 -1.53794 0.480906 0.166005 -3.64292 5.32879 -1.6525 -3.58424 10.9932 -0.891061 -0.0 0.0 -0.0 7.17883 7.98783 13.7848 -18.5225 10.2889 66.3062 0.516175 -14.3433 0.0649489 19.7083 0.268392 -2.49086 1.62375 -1.95209 10.1221 -0.0 0.0 -0.0 12.9094 26.6481 -25.3905 1.28615 6.55904 -51.099 1.82916 42.1761 -0.705428 17.2455 -0.281968 2.17661 0.959092 -5.26816 -8.52664 0.0 0.0 0.0 26.7978 -5.97596 3.8857 -44.649 -0.78871 6.63648 30.1347 26.8074 -4.16959 4.72042 -0.0 -0.0 -0.0 0.0 -0.0 5.95767 -1.70948 -5.1827 -18.4142 -0.311141 -2.79654 8.68682 20.4579 1.41007 -5.0177 0.0 0.0 0.0 0.0 0.0 
3265.4 661.764 -546.557 0.669789 53.8155 0.406391 -1.31318 0.325681 0.151129 -1.31322 0.315404 0.171547 -1.31227 0.266876 0.240178 -1.31222 0.301458 0.195016 -3.54617 5.27731 -1.57819 -3.48859 10.8388 -0.830777 -0.0 0.0 -0.0 6.9077 10.0747 13.2128 -17.5395 9.5335 65.6951 0.436661 -12.2058 0.046688 20.63 0.25984 -2.60828 1.68071 -1.42231 10.7266 -0.0 0.0 -0.0 13.058 26.5142 -25.7495 1.03083 7.86653 -47.9201 1.84022 42.348 -0.712867 18.8672 -0.274547 2.38361 1.55554 -2.67498 -11.5108 0.0 0.0 0.0 27.4308 -6.96142 4.10455 -41.4959 -0.564665 6.2064 24.2906 25.2726 -3.42518 5.05129 -0.0 -0.0 -0.0 0.0 -0.0 5.95676 -1.37668 -4.67501 -17.1752 -0.318571 -2.6066 9.25744 17.5611 1.46132 -5.23443 0.0 0.0 0.0 0.0 0.0 
3240.0 655.776 -552.249 -0.365183 53.7593 0.875425 -0.789543 0.323566 0.142183 -0.789587 0.313862 0.162484 -0.788692 0.269583 0.228551 -0.788637 0.302295 0.183107 -1.77604 4.55826 -1.35581 -1.71698 9.29796 -0.846086 -0.0 0.0 -0.0 6.71172 12.9616 12.7437 -16.9377 8.7506 65.417 0.380965 -10.6873 0.035634 20.9311 0.256637 -2.6466 1.66551 -0.156424 11.1346 -0.0 0.0 -0.0 13.16 26.5195 -25.9845 0.877339 8.71618 -46.7819 1.85137 42.5202 -0.720386 19.3589 -0.27114 2.44632 1.94713 -0.858183 -13.4651 0.0 0.0 0.0 28.984 -7.88681 3.58016 -38.575 -0.378608 5.79776 15.5048 23.9349 -2.25042 4.37291 -0.0 -0.0 -0.0 0.0 -0.0 3.99704 -0.83119 -3.56097 -16.7487 -0.320178 -2.54118 11.0469 14.3352 1.68892 -4.77569 0.0 0.0 0.0 0.0 0.0 
3219.95 656.875 -562.042 -0.392837 53.7183 0.623625 -0.601122 0.278134 0.137344 -0.601152 0.268831 0.154764 -0.600418 0.22811 0.210209 -0.600386 0.258445 0.171545 -1.46687 4.07202 -1.11718 -1.41943 8.22115 -0.676472 -0.0 0.0 -0.0 6.47499 15.4877 12.222 -17.1737 8.47935 64.7876 0.331183 -9.31705 0.026987 21.4889 0.25017 -2.71757 1.66398 0.659351 11.4507 -0.0 0.0 -0.0 12.9835 24.9294 -25.7605 -0.310686 10.2624 -47.1542 2.00177 44.7538 -0.824197 19.6722 -0.268688 2.48626 2.25381 0.865593 -14.8927 0.0 0.0 0.0 30.0845 -8.19126 2.30954 -36.3636 -0.251773 5.48248 9.32165 22.0338 -1.36928 3.40599 -0.0 -0.0 -0.0 0.0 -0.0 2.49519 -0.509684 -2.64051 -16.0672 -0.321736 -2.43662 12.3249 12.0691 1.84625 -4.49379 0.0 0.0 0.0 0.0 0.0 
